<?xml version="1.0" encoding="UTF-8"?>
<svg width="216px" height="41px" viewBox="0 0 216 41" version="1.1" xmlns="http://www.w3.org/2000/svg" xmlns:xlink="http://www.w3.org/1999/xlink">
    <!-- Generator: Sketch 51.2 (57519) - http://www.bohemiancoding.com/sketch -->
    <title>资源 11</title>
    <desc>Created with Sketch.</desc>
    <defs></defs>
    <g id="Page-1" stroke="none" stroke-width="1" fill="none" fill-rule="evenodd">
        <g id="资源-11" transform="translate(-15.000000, -4.000000)" fill-rule="nonzero">
            <rect id="Rectangle-path" x="0" y="0" width="250.79" height="52.31"></rect>
            <path d="M71,34.55 C70.04,34.6366667 69.1533333,34.68 68.34,34.68 C66.4789489,34.7901731 64.6168208,34.4826657 62.89,33.78 C61.7083924,33.1708272 60.8531535,32.074367 60.55,30.78 C60.1033769,28.7011973 59.9186085,26.5746807 60,24.45 C59.9304379,22.3373551 60.1252823,20.2243011 60.58,18.16 C60.8905212,16.8691716 61.7436184,15.7754573 62.92,15.16 C64.6444325,14.4482792 66.5078842,14.137134 68.37,14.25 C69.2519926,14.2546124 70.1331613,14.3046789 71.01,14.4 C71.7910591,14.4738842 72.5661837,14.6008442 73.33,14.78 L73.33,18.12 C72.0294308,17.9535871 70.720899,17.8567825 69.41,17.83 C68.1769963,17.7635214 66.9413094,17.895193 65.75,18.22 C65.0485912,18.5056461 64.5503984,19.1407469 64.44,19.89 C64.19717,21.4072499 64.1000609,22.9442527 64.15,24.48 C64.097946,25.9918013 64.1883449,27.5051459 64.42,29 C64.5323077,29.7484314 65.0298439,30.3826952 65.73,30.67 C66.9213733,30.9944674 68.1570053,31.1261331 69.39,31.06 C70.7288368,31.0672268 72.0662065,30.9702675 73.39,30.77 L73.39,34.17 C72.6008023,34.3398521 71.80296,34.4667057 71,34.55 Z" id="Shape" fill="#FFFFFF"></path>
            <path d="M77.8,34 C76.8989048,33.6066716 76.2331443,32.8151563 76,31.86 C75.6848428,30.2602075 75.5539898,28.6295775 75.61,27 C75.5545264,25.3803755 75.685385,23.7597415 76,22.17 C76.2167488,21.2027373 76.881607,20.396736 77.79,20 C79.2733205,19.4865585 80.8429638,19.2691188 82.41,19.36 C83.9670512,19.2730568 85.5261209,19.4904434 87,20 C87.9011033,20.3906726 88.5647147,21.1840404 88.79,22.14 C89.1172448,23.73834 89.2581847,25.3692155 89.21,27 C89.2655084,28.6262523 89.1346565,30.2535135 88.82,31.85 C88.5854172,32.8131123 87.9111633,33.609621 87,34 C85.5220037,34.5217121 83.9546283,34.7427086 82.39,34.65 C80.8320273,34.7400299 79.2717166,34.5190708 77.8,34 Z M84.48,31.17 C84.8814966,30.9422988 85.1437751,30.5301468 85.18,30.07 C85.2906634,29.0506288 85.3340907,28.0250774 85.31,27 C85.3351491,25.9749129 85.2917189,24.9492914 85.18,23.93 C85.1461351,23.4741745 84.8822591,23.0670515 84.48,22.85 C83.1175952,22.4831586 81.6824048,22.4831586 80.32,22.85 C79.9177409,23.0670515 79.6538649,23.4741745 79.62,23.93 C79.5116198,24.9495149 79.4715304,25.9751359 79.5,27 C79.4754693,28.0284091 79.5188971,29.0573156 79.63,30.08 C79.6662249,30.5401468 79.9285034,30.9522988 80.33,31.18 C81.6894568,31.5684892 83.1305432,31.5684892 84.49,31.18 L84.48,31.17 Z" id="Shape" fill="#FFFFFF"></path>
            <polygon id="Shape" fill="#FFFFFF" points="95 34.45 90.22 19.63 94.22 19.63 97.67 30.76 100.96 19.63 104.88 19.63 100.14 34.45"></polygon>
            <path d="M119,28.2 L109.76,28.2 C109.722496,28.9441128 109.800076,29.6895561 109.99,30.41 C110.158961,30.8455621 110.534054,31.1681418 110.99,31.27 C111.938613,31.4518452 112.904773,31.525649 113.87,31.49 C115.01,31.49 116.51,31.4133333 118.37,31.26 L118.37,34.26 C117.564262,34.4202847 116.749368,34.5304958 115.93,34.59 C114.923333,34.6766667 113.923333,34.72 112.93,34.72 C111.316313,34.8112887 109.701445,34.5625854 108.19,33.99 C107.231236,33.5657136 106.514861,32.7317799 106.24,31.72 C105.896784,30.205086 105.748915,28.6524664 105.8,27.1 C105.748744,25.5701268 105.900056,24.0401941 106.25,22.55 C106.526974,21.5410044 107.211858,20.6930526 108.14,20.21 C109.544212,19.6014492 111.072597,19.334153 112.6,19.43 C114.074818,19.3296393 115.551652,19.5940957 116.9,20.2 C117.76242,20.6753813 118.37288,21.5051687 118.57,22.47 C118.83397,23.9984857 118.94452,25.5495269 118.9,27.1 L119,28.2 Z M110.75,22.72 C110.360749,22.8855763 110.07443,23.2276719 109.98,23.64 C109.822921,24.3557636 109.749098,25.0872842 109.76,25.82 L115.34,25.82 C115.372015,25.0760437 115.29452,24.331421 115.11,23.61 C115.004873,23.1999288 114.717348,22.8607966 114.33,22.69 C113.787112,22.5192675 113.218544,22.4448122 112.65,22.47 C112.003346,22.434356 111.355696,22.5191269 110.74,22.72 L110.75,22.72 Z" id="Shape" fill="#FFFFFF"></path>
            <path d="M131.08,26.6 C131.106965,25.733575 131.053401,24.8665182 130.92,24.01 C130.870889,23.6089203 130.627916,23.257544 130.27,23.07 C129.708335,22.8908735 129.118574,22.816306 128.53,22.85 C127.890266,22.806289 127.250707,22.9376577 126.68,23.23 C126.269294,23.50439 125.98775,23.9339245 125.9,24.42 C125.753041,25.1943159 125.689346,25.9821324 125.71,26.77 L125.71,34.44 L121.85,34.44 L121.85,19.63 L125.63,19.63 L125.63,21.46 C126,20.74 127.63,19.4 130.34,19.4 C131.38,19.3310159 132.418695,19.5526041 133.34,20.04 C134.013854,20.4618193 134.497802,21.1285919 134.69,21.9 C134.939713,22.9747392 135.050616,24.077057 135.02,25.18 L135.02,34.45 L131.16,34.45 L131.08,26.6 Z" id="Shape" fill="#FFFFFF"></path>
            <path d="M138.65,33.66 C137.834944,32.7364901 137.440153,31.5158968 137.56,30.29 C137.523494,29.3622986 137.6626,28.4360526 137.97,27.56 C138.215921,26.8218356 138.715492,26.1947138 139.38,25.79 C140.283088,25.4497589 141.245918,25.2966587 142.21,25.34 C143.216667,25.34 144.726667,25.38 146.74,25.46 L146.74,25.24 C146.781291,24.6168777 146.685722,23.9922679 146.46,23.41 C146.247884,23.044349 145.878848,22.7970949 145.46,22.74 C144.592247,22.6183423 143.715967,22.5681736 142.84,22.59 C142.24,22.59 141.493333,22.62 140.6,22.68 C139.706667,22.74 139,22.7966667 138.48,22.85 L138.48,19.85 C140.343208,19.5331832 142.230053,19.3759461 144.12,19.38 C145.560422,19.3043502 147.001548,19.5150808 148.36,20 C149.20727,20.3307604 149.873059,21.0074639 150.19,21.86 C150.525487,23.0053603 150.674062,24.1973305 150.63,25.39 L150.63,34.39 L147,34.39 L146.88,32.59 C145.69,34.51 143.04,34.59 142,34.59 C140.805763,34.7165134 139.608115,34.3840322 138.65,33.66 Z M145.36,31.41 C145.739351,31.2764848 146.067832,31.0283766 146.3,30.7 C146.638486,30.0255868 146.790404,29.2729048 146.74,28.52 L146.74,28.06 L143.25,28.06 C142.730805,27.987884 142.206485,28.1509445 141.819763,28.5047951 C141.433041,28.8586458 141.224167,29.3664573 141.25,29.89 C141.25,30.41 141.44,31.31 142.14,31.5 C143.207859,31.694965 144.304699,31.664308 145.36,31.41 Z" id="Shape" fill="#FFFFFF"></path>
            <path d="M163.21,26.6 C163.236965,25.733575 163.183401,24.8665182 163.05,24.01 C163.000889,23.6089203 162.757916,23.257544 162.4,23.07 C161.838335,22.8908735 161.248574,22.816306 160.66,22.85 C160.020266,22.806289 159.380707,22.9376577 158.81,23.23 C158.399294,23.50439 158.11775,23.9339245 158.03,24.42 C157.883041,25.1943159 157.819346,25.9821324 157.84,26.77 L157.84,34.44 L154,34.44 L154,19.63 L157.79,19.63 L157.79,21.46 C158.16,20.74 159.64,19.4 162.5,19.4 C163.54,19.3310159 164.578695,19.5526041 165.5,20.04 C166.173854,20.4618193 166.657802,21.1285919 166.85,21.9 C167.099713,22.9747392 167.210616,24.077057 167.18,25.18 L167.18,34.45 L163.32,34.45 L163.21,26.6 Z" id="Shape" fill="#FFFFFF"></path>
            <path d="M183.17,34.18 L183.17,30.89 C185.43,31.11 187.36,31.22 188.96,31.22 C189.691958,31.2339281 190.423946,31.1938191 191.15,31.1 C191.569663,31.0560743 191.971771,30.9082909 192.32,30.67 C192.545303,30.5100724 192.707936,30.2767303 192.78,30.01 C192.855374,29.6483766 192.888928,29.2792872 192.88,28.91 C192.894633,28.5168684 192.857652,28.1235151 192.77,27.74 C192.705205,27.5039618 192.546058,27.3050282 192.33,27.19 C191.981532,27.0391528 191.609129,26.9511302 191.23,26.93 L187.18,26.46 C186.177223,26.3544932 185.213987,26.0117046 184.37,25.46 C183.734913,25.0326369 183.254492,24.4119478 183,23.69 C182.730743,22.7920895 182.605853,21.8571018 182.63,20.92 C182.54447,19.63257 182.8513,18.349462 183.51,17.24 C184.072854,16.421892 184.916022,15.8384339 185.88,15.6 C187.135801,15.3131728 188.42216,15.1821858 189.71,15.21 C191.780191,15.1784249 193.848034,15.3627545 195.88,15.76 L195.88,19 C194.096655,18.7606216 192.299339,18.6403551 190.5,18.64 C189.390276,18.5569993 188.275148,18.6963903 187.22,19.05 C186.964011,19.1584714 186.764736,19.3686166 186.67,19.63 C186.584215,19.9798959 186.547198,20.3399689 186.56,20.7 C186.543237,21.0998022 186.580234,21.500045 186.67,21.89 C186.740395,22.1263132 186.918383,22.3154254 187.15,22.4 C187.554992,22.5355209 187.974559,22.6227907 188.4,22.66 L192.75,23.18 C193.468784,23.2412908 194.173775,23.413322 194.84,23.69 C195.398791,23.9429352 195.856554,24.3760495 196.14,24.92 C196.653479,26.0719815 196.87995,27.3312983 196.8,28.59 C196.885097,29.9542531 196.598228,31.3160159 195.97,32.53 C195.476778,33.3657755 194.682482,33.9811762 193.75,34.25 C192.556923,34.5472342 191.329134,34.6817863 190.1,34.65 C187.781569,34.6644737 185.465246,34.5073781 183.17,34.18 Z" id="Shape" fill="#FFFFFF"></path>
            <path d="M216.08,37.43 L216.08,37.57 L211.78,37.57 L209.71,34.57 C209.043333,34.6233333 208.263333,34.65 207.37,34.65 C205.485429,34.7679448 203.597262,34.4850606 201.83,33.82 C200.750324,33.2975753 199.979688,32.2972308 199.75,31.12 C199.402204,29.0827068 199.25816,27.0158415 199.32,24.95 C199.258094,22.8841572 199.402138,20.8172853 199.75,18.78 C199.979688,17.6027692 200.750324,16.6024247 201.83,16.08 C205.444412,14.9771516 209.305588,14.9771516 212.92,16.08 C214.004545,16.5987214 214.779657,17.6000631 215.01,18.78 C215.357598,20.8173169 215.501641,22.8841624 215.44,24.95 C215.44,26.8033333 215.4,28.2466667 215.32,29.28 C215.265165,30.1815718 215.069461,31.0689922 214.74,31.91 C214.45349,32.6187217 213.944656,33.215285 213.29,33.61 L216.08,37.43 Z M207.45,31.23 L205.52,28.39 L209.57,28.39 L210.98,30.39 C211.240379,29.8605093 211.380392,29.2799707 211.39,28.69 C211.443333,27.93 211.47,26.6833333 211.47,24.95 C211.507996,23.4369255 211.437817,21.9230699 211.26,20.42 C211.216846,19.7852784 210.834515,19.2232518 210.26,18.95 C209.302317,18.693597 208.309733,18.592313 207.32,18.65 C206.336857,18.591854 205.350782,18.693163 204.4,18.95 C203.825211,19.2332614 203.444352,19.8007409 203.4,20.44 C203.212054,21.9388993 203.138508,23.4499334 203.18,24.96 C203.138469,26.470067 203.212015,27.9811041 203.4,29.48 C203.444352,30.1192591 203.825211,30.6867386 204.4,30.97 C205.35075,31.2270105 206.336853,31.3283224 207.32,31.27 L207.45,31.23 Z" id="Shape" fill="#FFFFFF"></path>
            <polygon id="Shape" fill="#FFFFFF" points="218.75 34.4 218.75 15.4 222.66 15.4 222.66 30.84 230.66 30.84 230.66 34.4"></polygon>
            <path d="M177,31.15 C176.544054,31.0481418 176.168961,30.7255621 176,30.29 C175.841325,29.7137697 175.767218,29.1175414 175.78,28.52 L175.78,22.71 L179.15,22.71 L179.15,19.51 L175.78,19.51 L175.78,15.21 L171.92,15.21 L171.92,19.51 L169,19.51 L169,22.71 L171.85,22.71 L171.85,27.26 C171.769401,28.708929 171.860027,30.1623076 172.12,31.59 C172.461218,32.6086734 173.227251,33.4294222 174.22,33.84 C175.798339,34.4091466 177.474454,34.657334 179.15,34.57 L179.15,31.37 C178.42755,31.3733164 177.706806,31.2995659 177,31.15 Z" id="Shape" fill="#FFFFFF"></path>
            <path d="M32.69,4.31 L15.25,14.39 L15.25,34.47 L32.66,44.56 L32.72,44.56 C32.1283231,41.0716397 31.8438989,37.5380868 31.87,34 C31.87,33.67 31.87,33.35 31.87,33 C27.7983222,32.6013298 24.5167942,29.4896286 23.9025223,25.4448581 C23.2882505,21.4000876 25.4979916,17.4544375 29.267725,15.8649066 C33.0374583,14.2753757 37.4051814,15.4475983 39.8724602,18.7110372 C42.3397391,21.974476 42.276946,26.4963304 39.72,29.69 L40.43,30.14 C43.4509121,32.022867 46.7188359,33.4767734 50.14,34.46 L50.14,14.37 L32.69,4.31 Z M24,18.5 C22.9647256,16.1230697 23.1551164,13.3904029 24.51,11.18 C24.51,11.18 24.57,11.09 24.59,11.18 C24.8071025,12.4154758 25.1800807,13.6184143 25.7,14.76 C25.9327019,15.1351619 26.1969941,15.4897817 26.49,15.82 C25.5094368,16.5605966 24.6666237,17.4677207 24,18.5 Z M41.38,18.23 C40.6925487,17.2416935 39.8401021,16.3790987 38.86,15.68 C39.9367818,14.4219468 40.5816985,12.8517147 40.7,11.2 L40.7,11.06 C40.7,10.94 40.7,10.99 40.78,11.06 C42.1069737,13.2203285 42.3224832,15.8844714 41.36,18.23 L41.38,18.23 Z" id="Shape" fill="#FFFFFF"></path>
        </g>
    </g>
</svg>