<?xml version="1.0" encoding="UTF-8"?>
<svg width="45px" height="45px" viewBox="0 0 45 45" version="1.1" xmlns="http://www.w3.org/2000/svg" xmlns:xlink="http://www.w3.org/1999/xlink">
    <!-- Generator: Sketch 51.2 (57519) - http://www.bohemiancoding.com/sketch -->
    <title>Mask</title>
    <desc>Created with Sketch.</desc>
    <defs>
        <rect id="path-1" x="0" y="0" width="45" height="45"></rect>
    </defs>
    <g id="Page-1" stroke="none" stroke-width="1" fill="none" fill-rule="evenodd">
        <g id="Artboard" transform="translate(-149.000000, -105.000000)">
            <g id="Group" transform="translate(149.000000, 105.000000)">
                <g id="Group-2">
                    <mask id="mask-2" fill="white">
                        <use xlink:href="#path-1"></use>
                    </mask>
                    <g id="Mask" fill-rule="nonzero"></g>
                    <g id="Group" mask="url(#mask-2)">
                        <g transform="translate(5.000000, 2.000000)" id="资源-18">
                            <g>
                                <path d="M17.44,0 L0,10.08 L0,30.15 L17.4,40.25 L17.46,40.25 C16.8699211,36.7514717 16.5888371,33.2078052 16.62,29.66 C16.62,29.33 16.62,29.01 16.62,28.66 C12.5483222,28.2613298 9.26679418,25.1496286 8.65252235,21.1048581 C8.03825051,17.0600876 10.2479916,13.1144375 14.017725,11.5249066 C17.7874583,9.93537573 22.1551814,11.1075983 24.6224602,14.3710372 C27.0897391,17.634476 27.026946,22.1563304 24.47,25.35 L25.18,25.8 C28.1995875,27.7116034 31.4711264,29.192547 34.9,30.2 L34.9,10.06 L17.44,0 Z M8.73,14.19 C7.69472564,11.8130697 7.88511636,9.08040292 9.24,6.87 C9.24,6.87 9.3,6.78 9.32,6.87 C9.53710253,8.10547577 9.91008069,9.30841434 10.43,10.45 C10.6627019,10.8251619 10.9269941,11.1797817 11.22,11.51 C10.2394368,12.2505966 9.3966237,13.1577207 8.73,14.19 Z M26.11,13.92 C25.4225487,12.9316935 24.5701021,12.0690987 23.59,11.37 C23.8656989,11.056738 24.1164642,10.7223843 24.34,10.37 C24.967039,9.32350361 25.3435179,8.1461512 25.44,6.93 L25.44,6.75 C25.44,6.63 25.44,6.68 25.52,6.75 C26.8502582,8.9086852 27.0694891,11.5728977 26.11,13.92 Z" id="Shape" fill="#FFFFFF" fill-rule="nonzero"></path>
                            </g>
                        </g>
                    </g>
                </g>
            </g>
        </g>
    </g>
</svg>