<?xml version="1.0" encoding="UTF-8"?>
<svg width="35px" height="41px" viewBox="0 0 35 41" version="1.1" xmlns="http://www.w3.org/2000/svg" xmlns:xlink="http://www.w3.org/1999/xlink">
    <!-- Generator: Sketch 47.1 (45422) - http://www.bohemiancoding.com/sketch -->
    <title>logo</title>
    <desc>Created with Sketch.</desc>
    <defs>
        <polygon id="path-1" points="0 0 45 0 45 45 0 45"></polygon>
    </defs>
    <g id="Page-1" stroke="none" stroke-width="1" fill="none" fill-rule="evenodd">
        <g id="logo" transform="translate(-5.000000, -2.000000)">
            <mask id="mask-2" fill="white">
                <use xlink:href="#path-1"></use>
            </mask>
            <g id="a"></g>
            <path d="M22.44,2 L5,12.08 L5,32.15 L22.4,42.25 L22.46,42.25 C21.8699211,38.7514717 21.5888371,35.2078052 21.62,31.66 L21.62,30.66 C17.5483222,30.2613298 14.2667942,27.1496286 13.6525223,23.1048581 C13.0382505,19.0600876 15.2479916,15.1144375 19.017725,13.5249066 C22.7874583,11.9353757 27.1551814,13.1075983 29.6224602,16.3710372 C32.0897391,19.634476 32.026946,24.1563304 29.47,27.35 L30.18,27.8 C33.1995875,29.7116034 36.4711264,31.192547 39.9,32.2 L39.9,12.06 L22.44,2 Z M13.73,16.19 C12.6947256,13.8130697 12.8851164,11.0804029 14.24,8.87 C14.24,8.87 14.3,8.78 14.32,8.87 C14.5371025,10.1054758 14.9100807,11.3084143 15.43,12.45 C15.663,12.825 15.927,13.18 16.22,13.51 C15.2394368,14.2505966 14.3966237,15.1577207 13.73,16.19 L13.73,16.19 Z M31.11,15.92 C30.4225487,14.9316935 29.5701021,14.0690987 28.59,13.37 C28.8656989,13.056738 29.1164642,12.7223843 29.34,12.37 C29.967039,11.3235036 30.3435179,10.1461512 30.44,8.93 L30.44,8.75 C30.44,8.63 30.44,8.68 30.52,8.75 C31.8502582,10.9086852 32.0694891,13.5728977 31.11,15.92 L31.11,15.92 Z" id="Shape" fill="#006EE5" fill-rule="nonzero" mask="url(#mask-2)"></path>
        </g>
    </g>
</svg>