<svg xmlns="http://www.w3.org/2000/svg" xmlns:xl="http://www.w3.org/1999/xlink" viewBox="0 0 1087 801" width="1087pt" height="1068"><defs><filter id="e" filterUnits="userSpaceOnUse"><feGaussianBlur in="SourceAlpha" result="blur" stdDeviation="1.308"/><feOffset in="blur" result="offset" dx="3.375" dy="3.375"/><feFlood flood-color="#000" flood-opacity=".5" result="flood"/><feComposite in="flood" in2="offset" operator="in"/></filter><linearGradient x1="0" x2="1" id="a" gradientUnits="userSpaceOnUse"><stop offset="0" stop-color="#fff" stop-opacity=".545"/><stop offset="1" stop-color="#fff"/></linearGradient><linearGradient id="q" xl:href="#a" gradientTransform="matrix(117 0 0 117 648 360)"/><marker orient="auto" overflow="visible" markerUnits="strokeWidth" id="r" viewBox="-1 -4 10 8" markerWidth="10" markerHeight="8" color="#d86b46"><path d="M8 0L0-3v6z" fill="currentColor" stroke="currentColor"/></marker><marker orient="auto" overflow="visible" markerUnits="strokeWidth" id="s" viewBox="-1 -3 7 6" markerWidth="7" markerHeight="6" color="#000"><path d="M4.8 0L0-1.8v3.6z" fill="currentColor" stroke="currentColor"/></marker><linearGradient x1="0" x2="1" id="b" gradientUnits="userSpaceOnUse"><stop offset="0" stop-color="#fff"/><stop offset="1" stop-color="#fff" stop-opacity=".545"/></linearGradient><linearGradient id="t" xl:href="#b" gradientTransform="matrix(117 0 0 117 315 364.5)"/><linearGradient x1="0" x2="1" id="c" gradientUnits="userSpaceOnUse"><stop offset="0" stop-color="#666"/><stop offset=".183" stop-color="#535353"/><stop offset="1"/></linearGradient><linearGradient id="u" xl:href="#c" gradientTransform="rotate(70 -208.39 719.1) scale(60.75526)"/><marker orient="auto" overflow="visible" markerUnits="strokeWidth" id="v" viewBox="-1 -3 6 6" markerWidth="6" markerHeight="6" color="gray"><path d="M3.2 0L0-1.2v2.4z" fill="currentColor" stroke="currentColor"/></marker><marker orient="auto" overflow="visible" markerUnits="strokeWidth" id="w" viewBox="-1 -3 6 6" markerWidth="6" markerHeight="6" color="gray"><path d="M3.2 0L0-1.2v2.4z" fill="currentColor" stroke="currentColor"/></marker></defs><g fill="none"><path fill="#fff" d="M0 0h1639v1272H0z"/><xl:use xl:href="#d" filter="url(#e)"/><xl:use xl:href="#f" filter="url(#e)"/><xl:use xl:href="#g" filter="url(#e)"/><xl:use xl:href="#h" filter="url(#e)"/><xl:use xl:href="#i" filter="url(#e)"/><xl:use xl:href="#j" filter="url(#e)"/><xl:use xl:href="#k" filter="url(#e)"/><xl:use xl:href="#l" filter="url(#e)"/><xl:use xl:href="#m" filter="url(#e)"/><xl:use xl:href="#n" filter="url(#e)"/><xl:use xl:href="#o" filter="url(#e)"/><xl:use xl:href="#p" filter="url(#e)"/><path fill="#fff" d="M650 397h108v28H650z"/><path stroke="#306dbb" stroke-linecap="round" stroke-linejoin="round" d="M650 397h108v28H650z"/><text transform="translate(655 397)" fill="#306dbb"><tspan font-family="Helvetica" font-size="12" font-weight="500" x="0" y="11" textLength="43.365">Balance</tspan><tspan font-family="Helvetica" font-size="12" font-weight="500" x="0" y="25" textLength="19.33">Txs</tspan></text><path fill="#fff" d="M650 439h108v28H650z"/><path stroke="#306dbb" stroke-linecap="round" stroke-linejoin="round" d="M650 439h108v28H650z"/><text transform="translate(655 439)" fill="#306dbb"><tspan font-family="Helvetica" font-size="12" font-weight="500" x="0" y="11" textLength="38.666">Metrics</tspan><tspan font-family="Helvetica" font-size="12" font-weight="500" x="0" y="25" textLength="44.684">Provider</tspan></text><path fill="#fff" d="M650 383h108v14H650z"/><path stroke="#306dbb" stroke-linecap="round" stroke-linejoin="round" d="M650 383h108v14H650z"/><text transform="translate(655 383)" fill="#306dbb"><tspan font-family="Helvetica" font-size="12" font-weight="bold" x="25" y="11" textLength="48">Account</tspan></text><path fill="#fff" d="M650 425h108v14H650z"/><path stroke="#306dbb" stroke-linecap="round" stroke-linejoin="round" d="M650 425h108v14H650z"/><text transform="translate(655 425)" fill="#306dbb"><tspan font-family="Helvetica" font-size="12" font-weight="bold" x="32.998" y="11" textLength="32.004">Miner</tspan></text><path fill="#fff" d="M650 254h108v14H650z"/><path stroke="#306dbb" stroke-linecap="round" stroke-linejoin="round" d="M650 254h108v14H650z"/><text transform="translate(655 254)" fill="#306dbb"><tspan font-family="Helvetica" font-size="12" font-weight="bold" x="22.319" y="11" textLength="53.361">Database</tspan></text><path fill="#fff" d="M650 268h108v115H650z"/><path stroke="#306dbb" stroke-linecap="round" stroke-linejoin="round" d="M650 268h108v115H650z"/><text transform="translate(655 268)" fill="#306dbb"><tspan font-family="Helvetica" font-size="12" font-weight="500" x="0" y="11" textLength="59.367">Replication</tspan><tspan font-family="Helvetica" font-size="12" font-weight="500" x="0" y="25" textLength="65.361">Consistency</tspan><tspan font-family="Helvetica" font-size="12" font-weight="500" x="0" y="39" textLength="38.016">Billings</tspan><tspan font-family="Helvetica" font-size="12" font-weight="500" x="0" y="53" textLength="59.35">Permission</tspan><tspan font-family="Helvetica" font-size="12" font-weight="500" x="0" y="67" textLength="60.691">Block Hash</tspan><tspan font-family="Helvetica" font-size="12" font-weight="500" x="0" y="81" textLength="76.699">Genesis Block</tspan><tspan font-family="Helvetica" font-size="12" font-weight="500" x="0" y="95" textLength="40.688">Deposit</tspan><tspan font-family="PingFang SC" font-size="12" font-weight="500" x="0" y="111" textLength="12">…</tspan></text><path fill="url(#q)" d="M648 252h117v216H648z"/><path d="M247.075 119.925c42.567 42.568 42.567 111.582 0 154.15-42.568 42.567-111.582 42.567-154.15 0-42.567-42.568-42.567-111.582 0-154.15 42.568-42.567 111.582-42.567 154.15 0" stroke="#e2c0b4" stroke-linecap="round" stroke-linejoin="round" stroke-width="4" stroke-dasharray="1,4"/><text transform="translate(87.8 109.8)" fill="#d76b46"><tspan font-family="Helvetica" font-size="18" font-weight="500" x="38.505" y="18" textLength="36.018">SQL</tspan><tspan font-family="Helvetica" font-size="18" font-weight="500" x="73.864" y="18" textLength="52.031"> Chain</tspan></text><g id="d"><path d="M88 192.6v-43.2c0-2.98 12.096-5.4 27-5.4s27 2.42 27 5.4v43.2c0 2.98-12.096 5.4-27 5.4s-27-2.42-27-5.4" fill="#fff"/><path d="M88 192.6v-43.2c0-2.98 12.096-5.4 27-5.4s27 2.42 27 5.4v43.2c0 2.98-12.096 5.4-27 5.4s-27-2.42-27-5.4m0-43.2c0 2.98 12.096 5.4 27 5.4s27-2.42 27-5.4" stroke="#d86b46" stroke-linecap="round" stroke-linejoin="round"/><text transform="translate(93 165.7)" fill="#d86b46"><tspan font-family="Helvetica" font-size="13" font-weight="500" x="5.74" y="13" textLength="32.519">Slave</tspan></text></g><g id="f"><path d="M196 192.6v-43.2c0-2.98 12.096-5.4 27-5.4s27 2.42 27 5.4v43.2c0 2.98-12.096 5.4-27 5.4s-27-2.42-27-5.4" fill="#fff"/><path d="M196 192.6v-43.2c0-2.98 12.096-5.4 27-5.4s27 2.42 27 5.4v43.2c0 2.98-12.096 5.4-27 5.4s-27-2.42-27-5.4m0-43.2c0 2.98 12.096 5.4 27 5.4s27-2.42 27-5.4" stroke="#d86b46" stroke-linecap="round" stroke-linejoin="round"/><text transform="translate(201 165.7)" fill="#d86b46"><tspan font-family="Helvetica" font-size="13" font-weight="500" x="5.74" y="13" textLength="32.519">Slave</tspan></text></g><g id="g"><path d="M142 291.6v-43.2c0-2.98 12.096-5.4 27-5.4s27 2.42 27 5.4v43.2c0 2.98-12.096 5.4-27 5.4s-27-2.42-27-5.4" fill="#fff"/><path d="M142 291.6v-43.2c0-2.98 12.096-5.4 27-5.4s27 2.42 27 5.4v43.2c0 2.98-12.096 5.4-27 5.4s-27-2.42-27-5.4m0-43.2c0 2.98 12.096 5.4 27 5.4s27-2.42 27-5.4" stroke="#d86b46" stroke-linecap="round" stroke-linejoin="round"/><text transform="translate(147 264.7)" fill="#d86b46"><tspan font-family="Helvetica" font-size="13" font-weight="500" x="2.135" y="13" textLength="39.73">Master</tspan></text></g><path marker-end="url(#r)" stroke="#d86b46" stroke-linecap="round" stroke-linejoin="round" d="M142 270l-23.524-62.73M196 270l23.524-62.73"/><path d="M203.625 45H216v36h-12.375m-74.25 0H117V45h12.375" stroke="#e2c0b4" stroke-linecap="round" stroke-linejoin="round"/><text transform="translate(122 48.5)" fill="#d86b46"><tspan font-family="Helvetica" font-size="11" font-weight="500" x="0" y="10" textLength="66.65">Replication: 3</tspan><tspan font-family="Helvetica" font-size="11" font-weight="500" x="0" y="25" textLength="59.915">Consistency</tspan><tspan font-family="PingFang SC" font-size="11" font-weight="500" x="59.915" y="25" textLength="20.482">: 1.0</tspan></text><path d="M247.075 569.925c42.567 42.568 42.567 111.582 0 154.15-42.568 42.567-111.582 42.567-154.15 0-42.567-42.568-42.567-111.582 0-154.15 42.568-42.567 111.582-42.567 154.15 0" stroke="#e2c0b4" stroke-linecap="round" stroke-linejoin="round" stroke-width="4" stroke-dasharray="1,4"/><text transform="translate(87.8 559.8)" fill="#d76b46"><tspan font-family="Helvetica" font-size="18" font-weight="500" x="38.505" y="18" textLength="36.018">SQL</tspan><tspan font-family="Helvetica" font-size="18" font-weight="500" x="73.864" y="18" textLength="52.031"> Chain</tspan></text><g id="h"><path d="M79 642.6v-43.2c0-2.98 12.096-5.4 27-5.4s27 2.42 27 5.4v43.2c0 2.98-12.096 5.4-27 5.4s-27-2.42-27-5.4" fill="#fff"/><path d="M79 642.6v-43.2c0-2.98 12.096-5.4 27-5.4s27 2.42 27 5.4v43.2c0 2.98-12.096 5.4-27 5.4s-27-2.42-27-5.4m0-43.2c0 2.98 12.096 5.4 27 5.4s27-2.42 27-5.4" stroke="#d86b46" stroke-linecap="round" stroke-linejoin="round"/><text transform="translate(84 615.7)" fill="#d86b46"><tspan font-family="Helvetica" font-size="13" font-weight="500" x="5.74" y="13" textLength="32.519">Slave</tspan></text></g><g id="i"><path d="M205 642.6v-43.2c0-2.98 12.096-5.4 27-5.4s27 2.42 27 5.4v43.2c0 2.98-12.096 5.4-27 5.4s-27-2.42-27-5.4" fill="#fff"/><path d="M205 642.6v-43.2c0-2.98 12.096-5.4 27-5.4s27 2.42 27 5.4v43.2c0 2.98-12.096 5.4-27 5.4s-27-2.42-27-5.4m0-43.2c0 2.98 12.096 5.4 27 5.4s27-2.42 27-5.4" stroke="#d86b46" stroke-linecap="round" stroke-linejoin="round"/><text transform="translate(210 615.7)" fill="#d86b46"><tspan font-family="Helvetica" font-size="13" font-weight="500" x="5.74" y="13" textLength="32.519">Slave</tspan></text></g><g id="j"><path d="M142 741.6v-43.2c0-2.98 12.096-5.4 27-5.4s27 2.42 27 5.4v43.2c0 2.98-12.096 5.4-27 5.4s-27-2.42-27-5.4" fill="#fff"/><path d="M142 741.6v-43.2c0-2.98 12.096-5.4 27-5.4s27 2.42 27 5.4v43.2c0 2.98-12.096 5.4-27 5.4s-27-2.42-27-5.4m0-43.2c0 2.98 12.096 5.4 27 5.4s27-2.42 27-5.4" stroke="#d86b46" stroke-linecap="round" stroke-linejoin="round"/><text transform="translate(147 714.7)" fill="#d86b46"><tspan font-family="Helvetica" font-size="13" font-weight="500" x="2.135" y="13" textLength="39.73">Master</tspan></text></g><path marker-end="url(#r)" stroke="#d86b46" stroke-linecap="round" stroke-linejoin="round" d="M142 720l-31.573-63.145"/><path marker-end="url(#r)" stroke="#d86b46" stroke-linecap="round" stroke-linejoin="round" stroke-dasharray="4,4" d="M196 720l31.573-63.145"/><g id="k"><path d="M142 642.6v-43.2c0-2.98 12.096-5.4 27-5.4s27 2.42 27 5.4v43.2c0 2.98-12.096 5.4-27 5.4s-27-2.42-27-5.4" fill="#fff"/><path d="M142 642.6v-43.2c0-2.98 12.096-5.4 27-5.4s27 2.42 27 5.4v43.2c0 2.98-12.096 5.4-27 5.4s-27-2.42-27-5.4m0-43.2c0 2.98 12.096 5.4 27 5.4s27-2.42 27-5.4" stroke="#d86b46" stroke-linecap="round" stroke-linejoin="round"/><text transform="translate(147 615.7)" fill="#d86b46"><tspan font-family="Helvetica" font-size="13" font-weight="500" x="5.74" y="13" textLength="32.519">Slave</tspan></text></g><path marker-end="url(#r)" stroke="#d86b46" stroke-linecap="round" stroke-linejoin="round" d="M169 693v-35.1"/><path d="M203.625 495H216v36h-12.375m-74.25 0H117v-36h12.375" stroke="#e2c0b4" stroke-linecap="round" stroke-linejoin="round"/><text transform="translate(122 500)" fill="#d86b46"><tspan font-family="Helvetica" font-size="11" font-weight="500" x="0" y="10" textLength="66.65">Replication: 4</tspan><tspan font-family="Helvetica" font-size="11" font-weight="500" x="0" y="23" textLength="87.436">Consistency: 0.75</tspan></text><path d="M991.045 119.925c42.567 42.568 42.567 111.582 0 154.15-42.567 42.567-111.582 42.567-154.149 0-42.567-42.568-42.567-111.582 0-154.15 42.567-42.567 111.582-42.567 154.15 0" stroke="#e2c0b4" stroke-linecap="round" stroke-linejoin="round" stroke-width="4" stroke-dasharray="1,4"/><text transform="translate(831.77 109.8)" fill="#d76b46"><tspan font-family="Helvetica" font-size="18" font-weight="500" x="38.505" y="18" textLength="36.018">SQL</tspan><tspan font-family="Helvetica" font-size="18" font-weight="500" x="73.864" y="18" textLength="52.031"> Chain</tspan></text><g id="l"><path d="M831.97 192.6v-43.2c0-2.98 12.097-5.4 27-5.4 14.905 0 27 2.42 27 5.4v43.2c0 2.98-12.095 5.4-27 5.4-14.903 0-27-2.42-27-5.4" fill="#fff"/><path d="M831.97 192.6v-43.2c0-2.98 12.097-5.4 27-5.4 14.905 0 27 2.42 27 5.4v43.2c0 2.98-12.095 5.4-27 5.4-14.903 0-27-2.42-27-5.4m0-43.2c0 2.98 12.097 5.4 27 5.4 14.905 0 27-2.42 27-5.4" stroke="#d86b46" stroke-linecap="round" stroke-linejoin="round"/><text transform="translate(836.97 165.7)" fill="#d86b46"><tspan font-family="Helvetica" font-size="13" font-weight="500" x="5.74" y="13" textLength="32.519">Slave</tspan></text></g><g id="m"><path d="M939.97 192.6v-43.2c0-2.98 12.097-5.4 27-5.4 14.905 0 27 2.42 27 5.4v43.2c0 2.98-12.095 5.4-27 5.4-14.903 0-27-2.42-27-5.4" fill="#fff"/><path d="M939.97 192.6v-43.2c0-2.98 12.097-5.4 27-5.4 14.905 0 27 2.42 27 5.4v43.2c0 2.98-12.095 5.4-27 5.4-14.903 0-27-2.42-27-5.4m0-43.2c0 2.98 12.097 5.4 27 5.4 14.905 0 27-2.42 27-5.4" stroke="#d86b46" stroke-linecap="round" stroke-linejoin="round"/><text transform="translate(944.97 165.7)" fill="#d86b46"><tspan font-family="Helvetica" font-size="13" font-weight="500" x="5.74" y="13" textLength="32.519">Slave</tspan></text></g><g id="n"><path d="M885.97 291.6v-43.2c0-2.98 12.097-5.4 27-5.4 14.905 0 27 2.42 27 5.4v43.2c0 2.98-12.095 5.4-27 5.4-14.903 0-27-2.42-27-5.4" fill="#fff"/><path d="M885.97 291.6v-43.2c0-2.98 12.097-5.4 27-5.4 14.905 0 27 2.42 27 5.4v43.2c0 2.98-12.095 5.4-27 5.4-14.903 0-27-2.42-27-5.4m0-43.2c0 2.98 12.097 5.4 27 5.4 14.905 0 27-2.42 27-5.4" stroke="#d86b46" stroke-linecap="round" stroke-linejoin="round"/><text transform="translate(890.97 264.7)" fill="#d86b46"><tspan font-family="Helvetica" font-size="13" font-weight="500" x="2.135" y="13" textLength="39.73">Master</tspan></text></g><path marker-end="url(#r)" stroke="#d86b46" stroke-linecap="round" stroke-linejoin="round" stroke-dasharray="4,4" d="M885.971 270l-23.524-62.73M939.971 270l23.523-62.73"/><path d="M950.625 45H963v36h-12.375m-74.25 0H864V45h12.375" stroke="#e2c0b4" stroke-linecap="round" stroke-linejoin="round"/><text transform="translate(869 50)" fill="#d86b46"><tspan font-family="Helvetica" font-size="11" font-weight="500" x="0" y="10" textLength="66.65">Replication: 3</tspan><tspan font-family="Helvetica" font-size="11" font-weight="500" x="0" y="23" textLength="81.318">Consistency: 0.0</tspan></text><path d="M994.075 569.925c42.567 42.568 42.567 111.582 0 154.15-42.568 42.567-111.582 42.567-154.15 0-42.567-42.568-42.567-111.582 0-154.15 42.568-42.567 111.582-42.567 154.15 0" stroke="#e2c0b4" stroke-linecap="round" stroke-linejoin="round" stroke-width="4" stroke-dasharray="1,4"/><text transform="translate(834.8 559.8)" fill="#d76b46"><tspan font-family="Helvetica" font-size="18" font-weight="500" x="38.505" y="18" textLength="36.018">SQL</tspan><tspan font-family="Helvetica" font-size="18" font-weight="500" x="73.864" y="18" textLength="52.031"> Chain</tspan></text><g id="o"><path d="M889 642.6v-43.2c0-2.98 12.096-5.4 27-5.4s27 2.42 27 5.4v43.2c0 2.98-12.096 5.4-27 5.4s-27-2.42-27-5.4" fill="#fff"/><path d="M889 642.6v-43.2c0-2.98 12.096-5.4 27-5.4s27 2.42 27 5.4v43.2c0 2.98-12.096 5.4-27 5.4s-27-2.42-27-5.4m0-43.2c0 2.98 12.096 5.4 27 5.4s27-2.42 27-5.4" stroke="#d86b46" stroke-linecap="round" stroke-linejoin="round"/><text transform="translate(894 615.7)" fill="#d86b46"><tspan font-family="Helvetica" font-size="13" font-weight="500" x="5.74" y="13" textLength="32.519">Slave</tspan></text></g><g id="p"><path d="M889 741.6v-43.2c0-2.98 12.096-5.4 27-5.4s27 2.42 27 5.4v43.2c0 2.98-12.096 5.4-27 5.4s-27-2.42-27-5.4" fill="#fff"/><path d="M889 741.6v-43.2c0-2.98 12.096-5.4 27-5.4s27 2.42 27 5.4v43.2c0 2.98-12.096 5.4-27 5.4s-27-2.42-27-5.4m0-43.2c0 2.98 12.096 5.4 27 5.4s27-2.42 27-5.4" stroke="#d86b46" stroke-linecap="round" stroke-linejoin="round"/><text transform="translate(894 714.7)" fill="#d86b46"><tspan font-family="Helvetica" font-size="13" font-weight="500" x="2.135" y="13" textLength="39.73">Master</tspan></text></g><path marker-end="url(#r)" stroke="#d86b46" stroke-linecap="round" stroke-linejoin="round" d="M916 693v-35.1"/><path d="M950.625 495H963v36h-12.375m-74.25 0H864v-36h12.375" stroke="#e2c0b4" stroke-linecap="round" stroke-linejoin="round"/><text transform="translate(869 500)" fill="#d86b46"><tspan font-family="Helvetica" font-size="11" font-weight="500" x="0" y="10" textLength="66.65">Replication: 2</tspan><tspan font-family="Helvetica" font-size="11" font-weight="500" x="0" y="23" textLength="81.318">Consistency: 1.0</tspan></text><text transform="translate(250.52 475.6)" fill="#000"><tspan font-family="Helvetica" font-size="12" font-weight="500" x="0" y="11" textLength="60.691">Block Hash</tspan></text><path marker-end="url(#s)" stroke="#000" stroke-linecap="round" stroke-linejoin="round" stroke-width="2" stroke-dasharray="1,4" d="M332.558 237.323l-42.268-10.564"/><text transform="translate(769.057 237.225)" fill="#000"><tspan font-family="Helvetica" font-size="12" font-weight="500" x="0" y="11" textLength="38.016">Billings</tspan></text><path fill="#fff" d="M324 397h108v28H324z"/><path stroke="#306dbb" stroke-linecap="round" stroke-linejoin="round" d="M324 397h108v28H324z"/><text transform="translate(329 397)" fill="#306dbb"><tspan font-family="Helvetica" font-size="12" font-weight="500" x="0" y="11" textLength="43.365">Balance</tspan><tspan font-family="Helvetica" font-size="12" font-weight="500" x="0" y="25" textLength="19.33">Txs</tspan></text><path fill="#fff" d="M324 439h108v28H324z"/><path stroke="#306dbb" stroke-linecap="round" stroke-linejoin="round" d="M324 439h108v28H324z"/><text transform="translate(329 439)" fill="#306dbb"><tspan font-family="Helvetica" font-size="12" font-weight="500" x="0" y="11" textLength="38.666">Metrics</tspan><tspan font-family="Helvetica" font-size="12" font-weight="500" x="0" y="25" textLength="44.684">Provider</tspan></text><path fill="#fff" d="M324 383h108v14H324z"/><path stroke="#306dbb" stroke-linecap="round" stroke-linejoin="round" d="M324 383h108v14H324z"/><text transform="translate(329 383)" fill="#306dbb"><tspan font-family="Helvetica" font-size="12" font-weight="bold" x="25" y="11" textLength="48">Account</tspan></text><path fill="#fff" d="M324 425h108v14H324z"/><path stroke="#306dbb" stroke-linecap="round" stroke-linejoin="round" d="M324 425h108v14H324z"/><text transform="translate(329 425)" fill="#306dbb"><tspan font-family="Helvetica" font-size="12" font-weight="bold" x="32.998" y="11" textLength="32.004">Miner</tspan></text><path fill="#fff" d="M324 254h108v14H324z"/><path stroke="#306dbb" stroke-linecap="round" stroke-linejoin="round" d="M324 254h108v14H324z"/><text transform="translate(329 254)" fill="#306dbb"><tspan font-family="Helvetica" font-size="12" font-weight="bold" x="22.319" y="11" textLength="53.361">Database</tspan></text><path fill="#fff" d="M324 268h108v115H324z"/><path stroke="#306dbb" stroke-linecap="round" stroke-linejoin="round" d="M324 268h108v115H324z"/><text transform="translate(329 268)" fill="#306dbb"><tspan font-family="Helvetica" font-size="12" font-weight="500" x="0" y="11" textLength="59.367">Replication</tspan><tspan font-family="Helvetica" font-size="12" font-weight="500" x="0" y="25" textLength="65.361">Consistency</tspan><tspan font-family="Helvetica" font-size="12" font-weight="500" x="0" y="39" textLength="38.016">Billings</tspan><tspan font-family="Helvetica" font-size="12" font-weight="500" x="0" y="53" textLength="59.35">Permission</tspan><tspan font-family="Helvetica" font-size="12" font-weight="500" x="0" y="67" textLength="60.691">Block Hash</tspan><tspan font-family="Helvetica" font-size="12" font-weight="500" x="0" y="81" textLength="76.699">Genesis Block</tspan><tspan font-family="Helvetica" font-size="12" font-weight="500" x="0" y="95" textLength="40.688">Deposit</tspan><tspan font-family="PingFang SC" font-size="12" font-weight="500" x="0" y="111" textLength="12">…</tspan></text><path fill="url(#t)" d="M315 252h117v225H315z"/><path d="M703.426 160.775c87.661 87.662 87.661 229.788 0 317.45-87.661 87.661-229.788 87.661-317.45 0-87.66-87.662-87.66-229.788 0-317.45 87.662-87.661 229.789-87.661 317.45 0" stroke="#36c" stroke-linecap="round" stroke-linejoin="round" stroke-width="6" stroke-dasharray="1,4"/><text transform="translate(482.36 162.37)" fill="#306dbb"><tspan font-family="Helvetica" font-size="20" font-weight="500" x="0" y="19" textLength="101.162">Main Chain</tspan></text><ellipse cx="471.441" cy="104.819" rx="37.853" ry="23.819" fill="#fff"/><ellipse cx="471.441" cy="104.819" rx="37.853" ry="23.819" stroke="#36c" stroke-width="4"/><text transform="translate(446.159 90.819)" fill="#306dbb"><tspan font-family="Helvetica" font-size="12" font-weight="500" x="10.61" y="11" textLength="29.344">Block</tspan><tspan font-family="Helvetica" font-size="12" font-weight="500" x=".937" y="25" textLength="48.691">Producer</tspan></text><ellipse cx="322.147" cy="318.181" rx="37.853" ry="23.819" fill="#fff"/><ellipse cx="322.147" cy="318.181" rx="37.853" ry="23.819" stroke="#36c" stroke-width="4"/><text transform="translate(296.865 304.181)" fill="#306dbb"><tspan font-family="Helvetica" font-size="12" font-weight="500" x="10.61" y="11" textLength="29.344">Block</tspan><tspan font-family="Helvetica" font-size="12" font-weight="500" x=".937" y="25" textLength="48.691">Producer</tspan></text><ellipse cx="453.441" cy="525.181" rx="37.853" ry="23.819" fill="#fff"/><ellipse cx="453.441" cy="525.181" rx="37.853" ry="23.819" stroke="#36c" stroke-width="4"/><text transform="translate(428.159 511.181)" fill="#306dbb"><tspan font-family="Helvetica" font-size="12" font-weight="500" x="10.61" y="11" textLength="29.344">Block</tspan><tspan font-family="Helvetica" font-size="12" font-weight="500" x=".937" y="25" textLength="48.691">Producer</tspan></text><ellipse cx="736.147" cy="210.181" rx="37.853" ry="23.819" fill="#fff"/><ellipse cx="736.147" cy="210.181" rx="37.853" ry="23.819" stroke="#36c" stroke-width="4"/><text transform="translate(710.865 196.181)" fill="#306dbb"><tspan font-family="Helvetica" font-size="12" font-weight="500" x="10.61" y="11" textLength="29.344">Block</tspan><tspan font-family="Helvetica" font-size="12" font-weight="500" x=".937" y="25" textLength="48.691">Producer</tspan></text><path fill="#fff" d="M486 398h108v28H486z"/><path stroke="#306dbb" stroke-linecap="round" stroke-linejoin="round" d="M486 398h108v28H486z"/><text transform="translate(491 398)" fill="#306dbb"><tspan font-family="Helvetica" font-size="12" font-weight="500" x="0" y="11" textLength="43.365">Balance</tspan><tspan font-family="Helvetica" font-size="12" font-weight="500" x="0" y="25" textLength="19.33">Txs</tspan></text><path fill="#fff" d="M486 440h108v28H486z"/><path stroke="#306dbb" stroke-linecap="round" stroke-linejoin="round" d="M486 440h108v28H486z"/><text transform="translate(491 440)" fill="#306dbb"><tspan font-family="Helvetica" font-size="12" font-weight="500" x="0" y="11" textLength="38.666">Metrics</tspan><tspan font-family="Helvetica" font-size="12" font-weight="500" x="0" y="25" textLength="44.684">Provider</tspan></text><path fill="#fff" d="M486 384h108v14H486z"/><path stroke="#306dbb" stroke-linecap="round" stroke-linejoin="round" d="M486 384h108v14H486z"/><text transform="translate(491 384)" fill="#306dbb"><tspan font-family="Helvetica" font-size="12" font-weight="bold" x="25" y="11" textLength="48">Account</tspan></text><path fill="#fff" d="M486 426h108v14H486z"/><path stroke="#306dbb" stroke-linecap="round" stroke-linejoin="round" d="M486 426h108v14H486z"/><text transform="translate(491 426)" fill="#306dbb"><tspan font-family="Helvetica" font-size="12" font-weight="bold" x="32.998" y="11" textLength="32.004">Miner</tspan></text><path fill="#fff" d="M486 255h108v14H486z"/><path stroke="#306dbb" stroke-linecap="round" stroke-linejoin="round" d="M486 255h108v14H486z"/><text transform="translate(491 255)" fill="#306dbb"><tspan font-family="Helvetica" font-size="12" font-weight="bold" x="22.319" y="11" textLength="53.361">Database</tspan></text><path fill="#fff" d="M486 269h108v115H486z"/><path stroke="#306dbb" stroke-linecap="round" stroke-linejoin="round" d="M486 269h108v115H486z"/><text transform="translate(491 269)" fill="#306dbb"><tspan font-family="Helvetica" font-size="12" font-weight="500" x="0" y="11" textLength="59.367">Replication</tspan><tspan font-family="Helvetica" font-size="12" font-weight="500" x="0" y="25" textLength="65.361">Consistency</tspan><tspan font-family="Helvetica" font-size="12" font-weight="500" x="0" y="39" textLength="38.016">Billings</tspan><tspan font-family="Helvetica" font-size="12" font-weight="500" x="0" y="53" textLength="59.35">Permission</tspan><tspan font-family="Helvetica" font-size="12" font-weight="500" x="0" y="67" textLength="60.691">Block Hash</tspan><tspan font-family="Helvetica" font-size="12" font-weight="500" x="0" y="81" textLength="76.699">Genesis Block</tspan><tspan font-family="Helvetica" font-size="12" font-weight="500" x="0" y="95" textLength="40.688">Deposit</tspan><tspan font-family="PingFang SC" font-size="12" font-weight="500" x="0" y="111" textLength="12">…</tspan></text><path d="M447.332 395.937a2.16 2.16 0 0 1-1.518-.619l-1.546.004a1.536 1.536 0 0 1-1.099-.453 1.53 1.53 0 0 1-.447-1.032c0-.02-.005-.039-.006-.058 0-.02.004-.038.006-.058a1.537 1.537 0 0 1 1.541-1.495l1.555-.002c.39-.383.92-.62 1.505-.622l2.346-.005c-.716-1.018-1.897-1.711-3.182-1.708l-2.227.004a3.86 3.86 0 0 0-1.546.327 3.863 3.863 0 0 0-2.332 3.564 3.854 3.854 0 0 0 1.137 2.735c.353.353.765.625 1.21.817.482.207 1.004.32 1.543.32l2.233-.006a3.884 3.884 0 0 0 3.214-1.717zm12.312-2.193c0-2.074-1.81-3.879-3.893-3.877l-2.817.008a3.881 3.881 0 0 0-3.214 1.723l2.11-.004a2.148 2.148 0 0 1 1.48.613l2.446-.007c.417-.001.809.161 1.103.456a1.55 1.55 0 0 1-1.088 2.644l-2.417.002c-.39.385-.924.624-1.512.625l-2.112.004a3.847 3.847 0 0 0 3.22 1.706l2.825-.004a3.887 3.887 0 0 0 3.869-3.89z" fill="#c9ddef"/><path d="M452.836 393.758a.995.995 0 0 0-.294-.705.99.99 0 0 0-.709-.293h-.05l-4.457.008a1 1 0 1 0 .004 2.001l4.474-.009h.034c.55 0 .998-.45.998-1.002zm-3.116-2.16h-.05c.008.013.02.025.028.038.008-.012.013-.027.021-.038zm0 4.334h.01l-.006-.008zm15.612.005a2.16 2.16 0 0 1-1.518-.619l-1.546.004a1.536 1.536 0 0 1-1.099-.453 1.53 1.53 0 0 1-.447-1.032c0-.02-.005-.039-.006-.058 0-.02.004-.038.006-.058a1.537 1.537 0 0 1 1.541-1.495l1.555-.002c.39-.383.92-.62 1.505-.622l2.346-.005c-.716-1.018-1.897-1.711-3.182-1.708l-2.227.004a3.86 3.86 0 0 0-1.546.327 3.863 3.863 0 0 0-2.332 3.564 3.854 3.854 0 0 0 1.137 2.735c.353.353.765.625 1.21.817.482.207 1.004.32 1.543.32l2.233-.006a3.884 3.884 0 0 0 3.214-1.717zm12.312-2.193c0-2.074-1.81-3.879-3.893-3.877l-2.817.008a3.881 3.881 0 0 0-3.214 1.723l2.11-.004a2.148 2.148 0 0 1 1.48.613l2.446-.007c.417-.001.809.161 1.103.456a1.55 1.55 0 0 1-1.088 2.644l-2.417.002c-.39.385-.924.624-1.512.625l-2.112.004a3.847 3.847 0 0 0 3.22 1.706l2.825-.004a3.887 3.887 0 0 0 3.869-3.89z" fill="#c9ddef"/><path d="M470.836 393.758a.995.995 0 0 0-.294-.705.99.99 0 0 0-.709-.293h-.05l-4.457.008a1 1 0 1 0 .004 2.001l4.474-.009h.034c.55 0 .998-.45.998-1.002zm-3.116-2.16h-.05c.008.013.02.025.028.038.008-.012.013-.027.021-.038zm0 4.334h.01l-.006-.008z" fill="#c9ddef"/><text transform="translate(269.03 200.735)" fill="#000"><tspan font-family="Helvetica" font-size="12" font-weight="500" x=".323" y="11" textLength="79.354">DB Permission</tspan></text><path d="M549.495 675.037V675c-.165 0-.33.003-.495.01-.164-.007-.33-.01-.495-.01v.037c-3.165.235-5.897 1.532-5.897 2.03-.98.868-1.963 1.103-2.453 2.759-2.454 1.104-1.472 7.727-1.472 7.727s.49 3.312 0 3.312c-.491 0-.678.187-.83 1.32 0 .836.496 2.508.496 2.508s.495 1.956.495 2.508c0 .835.253 1.114.743 1.114.248 0 .991-.279 1.058-.275-.315.832 1.472 4.967.981 6.071-.49 1.104-1.962 2.76-3.924 2.76-1.963 0-12.758 4.85-13.74 6.07C522.983 714.163 522 720 522 720l27-.295 27 .295c-.002-.014-.983-5.84-1.963-7.058-.981-1.221-11.776-6.071-13.738-6.071-1.963 0-3.435-1.656-3.925-2.76-.491-1.104 1.296-5.239.98-6.071.068-.004.811.275 1.059.275.49 0 .743-.279.743-1.115 0-.551.495-2.507.495-2.507s.496-1.672.496-2.508c-.152-1.133-.339-1.32-.83-1.32-.49 0 0-3.312 0-3.312s.982-6.623-1.472-7.727c-.49-1.656-1.472-1.89-2.453-2.76 0-.497-2.732-1.794-5.897-2.03z" fill="url(#u)"/><path marker-end="url(#v)" stroke="gray" stroke-linecap="round" stroke-linejoin="round" stroke-width="4" d="M546.741 666V562.861"/><text transform="translate(445.241 605.858)" fill="#000"><tspan font-family="PingFang SC" font-size="14" font-weight="500" x="0" y="15" textLength="14">①</tspan><tspan font-family="Lucida Console" font-size="14" font-weight="500" fill="#2b34c7" x="14" y="15" textLength="8.436"> </tspan><tspan font-family="Consolas" font-size="13.6" font-weight="500" fill="#1b1e22" x="22.436" y="15" textLength="171.979">cql create &apos;{&quot;node&quot;:2}&apos;</tspan></text><path marker-end="url(#s)" stroke="#000" stroke-linecap="round" stroke-linejoin="round" stroke-width="2" stroke-dasharray="1,4" d="M240.216 561.021L340.26 438.517m397.051 1.845l98.397 113.129m-31.036-337.603l-38.103 19.296"/><path marker-end="url(#w)" stroke="gray" stroke-linecap="round" stroke-linejoin="round" stroke-width="4" d="M576 698h206.1"/><text transform="translate(601.475 674.838)" fill="#000"><tspan font-family="PingFang SC" font-size="14" font-weight="500" x="0" y="15" textLength="14">③</tspan><tspan font-family="Consolas" font-size="13.6" font-weight="500" fill="#1b1e22" x="14" y="15" textLength="37.387"> sql.</tspan><tspan font-family="Consolas" font-size="13.6" font-weight="500" fill="#1b1e22" x="51.387" y="15" textLength="29.909">Open</tspan><tspan font-family="Consolas" font-size="13.6" font-weight="500" fill="#1b1e22" x="81.296" y="15" textLength="7.477">(</tspan><tspan font-family="Consolas" font-size="13.6" font-weight="500" fill="#1b1e22" x="88.773" y="15" textLength="37.387">&quot;cql&quot;</tspan><tspan font-family="Consolas" font-size="13.6" font-weight="500" fill="#1b1e22" x="126.16" y="15" textLength="44.864">, DSN)</tspan></text><path fill="#fff" d="M734.446 485.378h111v31h-111z"/><text transform="translate(739.446 490.715)" fill="#000"><tspan font-family="PingFang SC" font-size="14" font-weight="500" x="0" y="15" textLength="14">②</tspan><tspan font-family="PingFang SC" font-size="14" font-weight="500" fill="#2b34c7" x="14" y="15" textLength="4.662"> </tspan><tspan font-family="Consolas" font-size="13.6" font-weight="500" fill="#1b1e22" x="18.662" y="15" textLength="82.251">Organise DB</tspan></text><ellipse cx="714.441" cy="471.181" rx="37.853" ry="23.819" fill="#fff"/><ellipse cx="714.441" cy="471.181" rx="37.853" ry="23.819" stroke="#36c" stroke-width="4"/><text transform="translate(689.159 457.181)" fill="#306dbb"><tspan font-family="Helvetica" font-size="12" font-weight="500" x="10.61" y="11" textLength="29.344">Block</tspan><tspan font-family="Helvetica" font-size="12" font-weight="500" x=".937" y="25" textLength="48.691">Producer</tspan></text><path d="M609.332 395.937a2.16 2.16 0 0 1-1.518-.619l-1.546.004a1.536 1.536 0 0 1-1.099-.453 1.53 1.53 0 0 1-.447-1.032c0-.02-.005-.039-.006-.058 0-.02.004-.038.006-.058a1.537 1.537 0 0 1 1.541-1.495l1.555-.002c.39-.383.92-.62 1.505-.622l2.346-.005c-.716-1.018-1.897-1.711-3.182-1.708l-2.227.004a3.86 3.86 0 0 0-1.546.327 3.863 3.863 0 0 0-2.332 3.564 3.854 3.854 0 0 0 1.137 2.735c.353.353.765.625 1.21.817.482.207 1.004.32 1.543.32l2.233-.006a3.884 3.884 0 0 0 3.214-1.717zm12.312-2.193c0-2.074-1.81-3.879-3.893-3.877l-2.817.008a3.881 3.881 0 0 0-3.214 1.723l2.11-.004a2.148 2.148 0 0 1 1.48.613l2.446-.007c.417-.001.809.161 1.103.456a1.55 1.55 0 0 1-1.088 2.644l-2.417.002c-.39.385-.924.624-1.512.625l-2.112.004a3.847 3.847 0 0 0 3.22 1.706l2.825-.004a3.887 3.887 0 0 0 3.869-3.89z" fill="#c9ddef"/><path d="M614.836 393.758a.995.995 0 0 0-.294-.705.99.99 0 0 0-.709-.293h-.05l-4.457.008a1 1 0 1 0 .004 2.001l4.474-.009h.034c.55 0 .998-.45.998-1.002zm-3.116-2.16h-.05c.008.013.02.025.028.038.008-.012.013-.027.021-.038zm0 4.334h.01l-.006-.008zm15.612.005a2.16 2.16 0 0 1-1.518-.619l-1.546.004a1.536 1.536 0 0 1-1.099-.453 1.53 1.53 0 0 1-.447-1.032c0-.02-.005-.039-.006-.058 0-.02.004-.038.006-.058a1.537 1.537 0 0 1 1.541-1.495l1.555-.002c.39-.383.92-.62 1.505-.622l2.346-.005c-.716-1.018-1.897-1.711-3.182-1.708l-2.227.004a3.86 3.86 0 0 0-1.546.327 3.863 3.863 0 0 0-2.332 3.564 3.854 3.854 0 0 0 1.137 2.735c.353.353.765.625 1.21.817.482.207 1.004.32 1.543.32l2.233-.006a3.884 3.884 0 0 0 3.214-1.717zm12.312-2.193c0-2.074-1.81-3.879-3.893-3.877l-2.817.008a3.881 3.881 0 0 0-3.214 1.723l2.11-.004a2.148 2.148 0 0 1 1.48.613l2.446-.007c.417-.001.809.161 1.103.456a1.55 1.55 0 0 1-1.088 2.644l-2.417.002c-.39.385-.924.624-1.512.625l-2.112.004a3.847 3.847 0 0 0 3.22 1.706l2.825-.004a3.887 3.887 0 0 0 3.869-3.89z" fill="#c9ddef"/><path d="M632.836 393.758a.995.995 0 0 0-.294-.705.99.99 0 0 0-.709-.293h-.05l-4.457.008a1 1 0 1 0 .004 2.001l4.474-.009h.034c.55 0 .998-.45.998-1.002zm-3.116-2.16h-.05c.008.013.02.025.028.038.008-.012.013-.027.021-.038zm0 4.334h.01l-.006-.008z" fill="#c9ddef"/></g></svg>