<svg width="216" height="41" viewBox="0 0 216 41" xmlns="http://www.w3.org/2000/svg"><g fill="none"><path d="M-15-4h250.79v52.31H-15z"/><path d="M56 30.55c-.96.087-1.847.13-2.66.13a12.5 12.5 0 0 1-5.45-.9 4.54 4.54 0 0 1-2.34-3 25.49 25.49 0 0 1-.55-6.33 25.36 25.36 0 0 1 .58-6.29 4.6 4.6 0 0 1 2.34-3 12.33 12.33 0 0 1 5.45-.91 25.67 25.67 0 0 1 2.64.15c.781.074 1.556.2 2.32.38v3.34a36.81 36.81 0 0 0-3.92-.29 11.55 11.55 0 0 0-3.66.39 2.14 2.14 0 0 0-1.31 1.67 24.09 24.09 0 0 0-.29 4.59 24.1 24.1 0 0 0 .27 4.52 2.15 2.15 0 0 0 1.31 1.67 11.57 11.57 0 0 0 3.66.39 25.81 25.81 0 0 0 4-.29v3.4c-.79.17-1.587.297-2.39.38zm6.8-.55a3.15 3.15 0 0 1-1.8-2.14 21.35 21.35 0 0 1-.39-4.86 21.15 21.15 0 0 1 .39-4.83A3.11 3.11 0 0 1 62.79 16a12 12 0 0 1 4.62-.64A12 12 0 0 1 72 16a3.11 3.11 0 0 1 1.79 2.14 21.12 21.12 0 0 1 .42 4.86 21.32 21.32 0 0 1-.39 4.85A3.15 3.15 0 0 1 72 30a11.76 11.76 0 0 1-4.61.65A11.76 11.76 0 0 1 62.8 30zm6.68-2.83a1.39 1.39 0 0 0 .7-1.1c.11-1.02.154-2.045.13-3.07a23 23 0 0 0-.13-3.07 1.34 1.34 0 0 0-.7-1.08 8 8 0 0 0-4.16 0 1.34 1.34 0 0 0-.7 1.08A23 23 0 0 0 64.5 23a23.36 23.36 0 0 0 .13 3.08c.036.46.299.872.7 1.1a7.57 7.57 0 0 0 4.16 0l-.01-.01zM80 30.45l-4.78-14.82h4l3.45 11.13 3.29-11.13h3.92l-4.74 14.82zm24-6.25h-9.24a7.24 7.24 0 0 0 .23 2.21 1.4 1.4 0 0 0 1 .86 12.79 12.79 0 0 0 2.88.22c1.14 0 2.64-.077 4.5-.23v3c-.806.16-1.62.27-2.44.33-1.007.087-2.007.13-3 .13a11.54 11.54 0 0 1-4.74-.73 3.48 3.48 0 0 1-1.95-2.27 18.2 18.2 0 0 1-.44-4.62c-.051-1.53.1-3.06.45-4.55a3.76 3.76 0 0 1 1.89-2.34 9.69 9.69 0 0 1 4.46-.78 9 9 0 0 1 4.3.77 3.36 3.36 0 0 1 1.67 2.27 23.28 23.28 0 0 1 .33 4.63l.1 1.1zm-8.25-5.48a1.32 1.32 0 0 0-.77.92 9.51 9.51 0 0 0-.22 2.18h5.58a7.6 7.6 0 0 0-.23-2.21 1.38 1.38 0 0 0-.78-.92 4.88 4.88 0 0 0-1.68-.22 5.23 5.23 0 0 0-1.91.25h.01zm20.33 3.88a14 14 0 0 0-.16-2.59 1.23 1.23 0 0 0-.65-.94 4.82 4.82 0 0 0-1.74-.22 3.53 3.53 0 0 0-1.85.38 1.82 1.82 0 0 0-.78 1.19 11.05 11.05 0 0 0-.19 2.35v7.67h-3.86V15.63h3.78v1.83c.37-.72 2-2.06 4.71-2.06a5.62 5.62 0 0 1 3 .64 3.07 3.07 0 0 1 1.35 1.86c.25 1.075.36 2.177.33 3.28v9.27h-3.86l-.08-7.85zm7.57 7.06a4.44 4.44 0 0 1-1.09-3.37 7.37 7.37 0 0 1 .41-2.73 3.29 3.29 0 0 1 1.41-1.77 7.12 7.12 0 0 1 2.83-.45c1.007 0 2.517.04 4.53.12v-.22a4.28 4.28 0 0 0-.28-1.83 1.37 1.37 0 0 0-1-.67 16 16 0 0 0-2.62-.15c-.6 0-1.347.03-2.24.09-.893.06-1.6.117-2.12.17v-3a33.22 33.22 0 0 1 5.64-.47 10.91 10.91 0 0 1 4.24.62 3.19 3.19 0 0 1 1.83 1.86 11.1 11.1 0 0 1 .44 3.53v9H132l-.12-1.8c-1.19 1.92-3.84 2-4.88 2a4.73 4.73 0 0 1-3.35-.93zm6.71-2.25a1.94 1.94 0 0 0 .94-.71 4.23 4.23 0 0 0 .44-2.18v-.46h-3.49a1.76 1.76 0 0 0-2 1.83c0 .52.19 1.42.89 1.61a7.78 7.78 0 0 0 3.22-.09zm17.85-4.81a14 14 0 0 0-.16-2.59 1.23 1.23 0 0 0-.65-.94 4.82 4.82 0 0 0-1.74-.22 3.53 3.53 0 0 0-1.85.38 1.82 1.82 0 0 0-.78 1.19 11.05 11.05 0 0 0-.19 2.35v7.67H139V15.63h3.79v1.83c.37-.72 1.85-2.06 4.71-2.06a5.62 5.62 0 0 1 3 .64 3.07 3.07 0 0 1 1.35 1.86c.25 1.075.36 2.177.33 3.28v9.27h-3.86l-.11-7.85zm19.96 7.58v-3.29c2.26.22 4.19.33 5.79.33a14.88 14.88 0 0 0 2.19-.12 2.54 2.54 0 0 0 1.17-.43 1.19 1.19 0 0 0 .46-.66 4.82 4.82 0 0 0 .1-1.1 4.5 4.5 0 0 0-.11-1.17.89.89 0 0 0-.44-.55 3.22 3.22 0 0 0-1.1-.26l-4.05-.47a6.35 6.35 0 0 1-2.81-1 3.56 3.56 0 0 1-1.37-1.77 8.85 8.85 0 0 1-.37-2.77 6.38 6.38 0 0 1 .88-3.68 4.06 4.06 0 0 1 2.37-1.64 15.68 15.68 0 0 1 3.83-.39 29.79 29.79 0 0 1 6.17.55V15a40.5 40.5 0 0 0-5.38-.36 8.36 8.36 0 0 0-3.28.41 1 1 0 0 0-.55.58 3.91 3.91 0 0 0-.11 1.07c-.017.4.02.8.11 1.19a.78.78 0 0 0 .48.51 5.43 5.43 0 0 0 1.25.26l4.35.52a7 7 0 0 1 2.09.51 2.74 2.74 0 0 1 1.3 1.23 7.8 7.8 0 0 1 .66 3.67 7.55 7.55 0 0 1-.83 3.94 3.8 3.8 0 0 1-2.22 1.72 13.64 13.64 0 0 1-3.65.4 47 47 0 0 1-6.93-.47zm32.91 3.25v.14h-4.3l-2.07-3a29.79 29.79 0 0 1-2.34.08 13.36 13.36 0 0 1-5.54-.83 3.81 3.81 0 0 1-2.08-2.7 31.13 31.13 0 0 1-.43-6.17 31.12 31.12 0 0 1 .43-6.17 3.81 3.81 0 0 1 2.08-2.7 19 19 0 0 1 11.09 0 3.8 3.8 0 0 1 2.09 2.7 31.16 31.16 0 0 1 .43 6.17c0 1.853-.04 3.297-.12 4.33a8.65 8.65 0 0 1-.58 2.63 3.53 3.53 0 0 1-1.45 1.7l2.79 3.82zm-8.63-6.2l-1.93-2.84h4.05l1.41 2a4 4 0 0 0 .41-1.7c.053-.76.08-2.007.08-3.74a31.77 31.77 0 0 0-.21-4.53 1.76 1.76 0 0 0-1-1.47 9.28 9.28 0 0 0-2.94-.3 9.13 9.13 0 0 0-2.92.3 1.8 1.8 0 0 0-1 1.49 29.76 29.76 0 0 0-.22 4.52 29.75 29.75 0 0 0 .22 4.52 1.8 1.8 0 0 0 1 1.49 9.12 9.12 0 0 0 2.92.3l.13-.04zm11.3 3.17v-19h3.91v15.44h8v3.56zM162 27.15a1.4 1.4 0 0 1-1-.86 6.17 6.17 0 0 1-.22-1.77v-5.81h3.37v-3.2h-3.37v-4.3h-3.86v4.3H154v3.2h2.85v4.55a18.45 18.45 0 0 0 .27 4.33 3.71 3.71 0 0 0 2.1 2.25 12.6 12.6 0 0 0 4.93.73v-3.2a10.16 10.16 0 0 1-2.15-.22zM17.69.31L.25 10.39v20.08l17.41 10.09h.06A60.48 60.48 0 0 1 16.87 30v-1a8.94 8.94 0 1 1 7.85-3.31l.71.45a38.42 38.42 0 0 0 9.71 4.32V10.37L17.69.31zM9 14.5a7.94 7.94 0 0 1 .51-7.32s.06-.09.08 0a14.83 14.83 0 0 0 1.11 3.58c.233.375.497.73.79 1.06A10.49 10.49 0 0 0 9 14.5zm17.38-.27a10.49 10.49 0 0 0-2.52-2.55A7.74 7.74 0 0 0 25.7 7.2v-.14c0-.12 0-.07.08 0a7.94 7.94 0 0 1 .58 7.17h.02z" fill="#FFF"/></g></svg>