<svg xmlns="http://www.w3.org/2000/svg" xmlns:xl="http://www.w3.org/1999/xlink" viewBox="0 0 1629 873" width="2172" height="1164"><defs><filter id="b" filterUnits="userSpaceOnUse"><feGaussianBlur in="SourceAlpha" result="blur" stdDeviation="1.308"/><feOffset in="blur" result="offset" dy="2"/><feFlood flood-color="#000" flood-opacity=".5" result="flood"/><feComposite in="flood" in2="offset" operator="in"/></filter><filter id="k" filterUnits="userSpaceOnUse"><feGaussianBlur in="SourceAlpha" result="blur" stdDeviation="1.308"/><feOffset in="blur" result="offset" dy="2"/><feFlood flood-color="#000" flood-opacity=".5" result="flood"/><feComposite in="flood" in2="offset" operator="in" result="color"/><feMerge><feMergeNode in="color"/><feMergeNode in="SourceGraphic"/></feMerge></filter><marker orient="auto" overflow="visible" markerUnits="strokeWidth" id="l" viewBox="-1 -4 10 8" markerWidth="10" markerHeight="8" color="#000"><path d="M8 0L0-3v6z" fill="currentColor" stroke="currentColor"/></marker></defs><g fill="none"><path fill="#fff" d="M0 0h1639v1272H0z"/><xl:use xl:href="#a" filter="url(#b)"/><xl:use xl:href="#c" filter="url(#b)"/><xl:use xl:href="#d" filter="url(#b)"/><xl:use xl:href="#e" filter="url(#b)"/><xl:use xl:href="#f" filter="url(#b)"/><xl:use xl:href="#g" filter="url(#b)"/><xl:use xl:href="#h" filter="url(#b)"/><xl:use xl:href="#i" filter="url(#b)"/><xl:use xl:href="#j" filter="url(#b)"/><path d="M815 54h737a5 5 0 0 1 5 5v629a5 5 0 0 1-5 5H815a5 5 0 0 1-5-5V59a5 5 0 0 1 5-5z" stroke="#000" stroke-linecap="round" stroke-linejoin="round"/><text transform="translate(815 54)" fill="#000"><tspan font-family="Helvetica" font-size="30" font-weight="500" x="293.449" y="29" textLength="150.103">another BP</tspan></text><path d="M77 54h683a5 5 0 0 1 5 5v629a5 5 0 0 1-5 5H77a5 5 0 0 1-5-5V59a5 5 0 0 1 5-5z" stroke="#000" stroke-linecap="round" stroke-linejoin="round"/><text transform="translate(77 54)" fill="#000"><tspan font-family="Helvetica" font-size="30" font-weight="500" x="207.518" y="29" textLength="40.02">BP</tspan><tspan font-family="Helvetica" font-size="30" font-weight="500" x="247.01" y="29" textLength="228.472"> to produce block</tspan></text><path d="M326.25 99H360v459h-33.75m-202.5 0H90V99h33.75" stroke="#000" stroke-linecap="round" stroke-linejoin="round" stroke-dasharray="4,4"/><text transform="translate(95 99)" fill="#000"><tspan font-family="Helvetica" font-size="16" font-weight="500" x="73.531" y="15" textLength="112.938">Immutable Data</tspan></text><g filter="url(#k)"><path fill="#fff" d="M144 180h72v72h-72z"/><path stroke="#000" stroke-linecap="round" stroke-linejoin="round" d="M144 180h72v72h-72z"/><text transform="translate(149 197)" fill="#000"><tspan font-family="Helvetica" font-size="16" font-weight="500" x="11.438" y="15" textLength="39.125">Block</tspan><tspan font-family="Helvetica" font-size="16" font-weight="500" x="26.551" y="34" textLength="8.898">0</tspan></text></g><g filter="url(#k)"><path fill="#fff" d="M216 180h72v72h-72z"/><path stroke="#000" stroke-linecap="round" stroke-linejoin="round" d="M216 180h72v72h-72z"/><text transform="translate(221 197)" fill="#000"><tspan font-family="Helvetica" font-size="16" font-weight="500" x="11.438" y="15" textLength="39.125">Block</tspan><tspan font-family="Helvetica" font-size="16" font-weight="500" x="26.551" y="34" textLength="8.898">1</tspan></text></g><g filter="url(#k)"><path fill="#fff" d="M288 180h72v72h-72z"/><path stroke="#000" stroke-linecap="round" stroke-linejoin="round" d="M288 180h72v72h-72z"/><text transform="translate(293 197)" fill="#000"><tspan font-family="Helvetica" font-size="16" font-weight="500" x="11.438" y="15" textLength="39.125">Block</tspan><tspan font-family="Helvetica" font-size="16" font-weight="500" x="26.551" y="34" textLength="8.898">2</tspan></text></g><g filter="url(#k)"><path fill="#fff" d="M360 180h72v72h-72z"/><path stroke="#000" stroke-linecap="round" stroke-linejoin="round" d="M360 180h72v72h-72z"/><text transform="translate(365 197)" fill="#000"><tspan font-family="Helvetica" font-size="16" font-weight="500" x="11.438" y="15" textLength="39.125">Block</tspan><tspan font-family="Helvetica" font-size="16" font-weight="500" x="26.551" y="34" textLength="8.898">3</tspan></text></g><g filter="url(#k)"><path fill="#fff" d="M432 180h72v72h-72z"/><path stroke="#000" stroke-linecap="round" stroke-linejoin="round" d="M432 180h72v72h-72z"/><text transform="translate(437 197)" fill="#000"><tspan font-family="Helvetica" font-size="16" font-weight="500" x="11.438" y="15" textLength="39.125">Block</tspan><tspan font-family="Helvetica" font-size="16" font-weight="500" x="26.551" y="34" textLength="8.898">4</tspan></text></g><g filter="url(#k)"><path fill="#fff" d="M576 180h72v72h-72z"/><path stroke="#000" stroke-linecap="round" stroke-linejoin="round" d="M576 180h72v72h-72z"/><text transform="translate(581 197)" fill="#000"><tspan font-family="Helvetica" font-size="16" font-weight="500" x="11.438" y="15" textLength="39.125">Block</tspan><tspan font-family="Helvetica" font-size="16" font-weight="500" x="26.551" y="34" textLength="8.898">6</tspan></text></g><g id="a"><path d="M189 446.4V345.6c0-6.955 24.192-12.6 54-12.6s54 5.645 54 12.6v100.8c0 6.955-24.192 12.6-54 12.6s-54-5.645-54-12.6" fill="#fff"/><path d="M189 446.4V345.6c0-6.955 24.192-12.6 54-12.6s54 5.645 54 12.6v100.8c0 6.955-24.192 12.6-54 12.6s-54-5.645-54-12.6m0-100.8c0 6.955 24.192 12.6 54 12.6s54-5.645 54-12.6" stroke="#000" stroke-linecap="round" stroke-linejoin="round"/><text transform="translate(194 386.3)" fill="#000"><tspan font-family="Helvetica" font-size="13" font-weight="500" x="18.655" y="13" textLength="60.69">Immutable</tspan><tspan font-family="Helvetica" font-size="13" font-weight="500" x="39.97" y="29" textLength="18.059">DB</tspan></text></g><g id="c"><path d="M648 252v-72h72c-9 21.6 27 50.4 9 72z" fill="#fff"/><path d="M648 252v-72h72c-9 21.6 27 50.4 9 72z" stroke="#000" stroke-linecap="round" stroke-linejoin="round"/><text transform="translate(662 192.5)" fill="#000"><tspan font-family="Helvetica" font-size="16" font-weight="500" x="22.113" y="15" textLength="17.773">Tx</tspan><tspan font-family="Helvetica" font-size="16" font-weight="500" x="14.988" y="34" textLength="32.023">Pool</tspan></text></g><g id="d"><path fill="#fff" d="M342 612h108v54H342z"/><path d="M342 612h108v54H342zm10.8 0v54m86.4 0v-54" stroke="#000" stroke-linecap="round" stroke-linejoin="round"/><text transform="translate(357.8 629.5)" fill="#000"><tspan font-family="Helvetica" font-size="16" font-weight="500" x="13.446" y="15" textLength="21.344">BP</tspan><tspan font-family="Helvetica" font-size="16" font-weight="500" x="34.509" y="15" textLength="28.445"> VM</tspan></text></g><path d="M243 459v180h89.1" marker-end="url(#l)" stroke="#000" stroke-linecap="round" stroke-linejoin="round"/><path fill="#fff" d="M206 535.682h74v41h-74z"/><text transform="translate(211 540.682)" fill="#000"><tspan font-family="PingFang SC" font-size="12" font-weight="500" x="2.251" y="13" textLength="10.368">5.</tspan><tspan font-family="Helvetica" font-size="12" font-weight="500" x="12.619" y="13" textLength="36.012">Query </tspan><tspan font-family="Helvetica" font-size="12" font-weight="500" x="48.419" y="13" textLength="13.33">Tx</tspan><tspan font-family="Helvetica" font-size="12" font-weight="500" x=".31" y="28" textLength="63.381">related data</tspan></text><g id="e"><circle cx="396" cy="783" r="36" fill="#fff"/><circle cx="396" cy="783" r="36" stroke="#000" stroke-linecap="round" stroke-linejoin="round"/><text transform="translate(372.2 777)" fill="#000"><tspan font-family="Helvetica" font-size="10" font-weight="500" x="11.017" y="10" textLength="25.566">Client</tspan></text></g><path marker-end="url(#l)" stroke="#000" stroke-linecap="round" stroke-linejoin="round" d="M396 747v-71.1"/><path fill="#fff" d="M364.5 688.09h63v28h-63z"/><text transform="translate(369.5 693.59)" fill="#000"><tspan font-family="PingFang SC" font-size="12" font-weight="500" x=".416" y="13" textLength="14.364">4. </tspan><tspan font-family="Helvetica" font-size="12" font-weight="500" x="14.78" y="13" textLength="24.686">Add </tspan><tspan font-family="Helvetica" font-size="12" font-weight="500" x="39.254" y="13" textLength="13.33">Tx</tspan></text><text transform="translate(365 127.44)" fill="#000"><tspan font-family="Helvetica Neue" font-size="16" font-weight="500" x=".176" y="15" textLength="42.672">Comfi</tspan><tspan font-family="Helvetica Neue" font-size="16" font-weight="500" x="42.848" y="15" textLength="18.976">rm</tspan><tspan font-family="Helvetica Neue" font-size="24" font-weight="500" x="20.992" y="41.448" textLength="20.016">⅔</tspan></text><text transform="translate(293 127.44)" fill="#000"><tspan font-family="Helvetica Neue" font-size="16" font-weight="500" x=".176" y="15" textLength="42.672">Comfi</tspan><tspan font-family="Helvetica Neue" font-size="16" font-weight="500" x="42.848" y="15" textLength="18.976">rm</tspan><tspan font-family="Helvetica Neue" font-size="22" font-weight="500" x="1.004" y="41.448" textLength="12.232">1</tspan><tspan font-family="Helvetica Neue" font-size="24" font-weight="500" x="13.236" y="41.448" textLength="47.76"> + ⅔</tspan></text><path marker-end="url(#l)" stroke="#000" stroke-linecap="round" stroke-linejoin="round" d="M396 252v350.1"/><path fill="#fff" d="M370.5 404.261h51v38h-51z"/><text transform="translate(375.5 409.26)" fill="#000"><tspan font-family="Helvetica" font-size="12" font-weight="500" x=".487" y="11" textLength="18.012">1.V</tspan><tspan font-family="Helvetica" font-size="12" font-weight="500" x="17.843" y="11" textLength="22.67">erify</tspan><tspan font-family="Helvetica" font-size="12" font-weight="500" x="2.491" y="25" textLength="36.018">Block3</tspan></text><path marker-end="url(#l)" stroke="#000" stroke-linecap="round" stroke-linejoin="round" d="M371.887 612l-71.644-206.646"/><path fill="#fff" d="M298.832 472.641h63v39h-63z"/><text transform="translate(303.832 477.805)" fill="#000"><tspan font-family="Helvetica Neue" font-size="12" font-weight="500" x=".058" y="11" textLength="52.884">2. ExecTx</tspan><tspan font-family="Helvetica Neue" font-size="12" font-weight="500" x="7.942" y="25.336" textLength="37.116">Block3</tspan></text><path marker-end="url(#l)" stroke="#000" stroke-linecap="round" stroke-linejoin="round" d="M747 639h422.1"/><g id="f"><path fill="#fff" d="M639 612h108v54H639z"/><path d="M639 612h108v54H639zm10.8 0v54m86.4 0v-54" stroke="#000" stroke-linecap="round" stroke-linejoin="round"/><text transform="translate(654.8 620)" fill="#000"><tspan font-family="Helvetica" font-size="16" font-weight="500" x="19.516" y="15" textLength="41.813">Xeno </tspan><tspan font-family="Helvetica" font-size="16" font-weight="500" x="13.302" y="34" textLength="49.797">Gossip</tspan></text></g><g id="g"><path fill="#fff" d="M1179 612h108v54h-108z"/><path d="M1179 612h108v54h-108zm10.8 0v54m86.4 0v-54" stroke="#000" stroke-linecap="round" stroke-linejoin="round"/><text transform="translate(1194.8 620)" fill="#000"><tspan font-family="Helvetica" font-size="16" font-weight="500" x="19.516" y="15" textLength="41.813">Xeno </tspan><tspan font-family="Helvetica" font-size="16" font-weight="500" x="13.302" y="34" textLength="49.797">Gossip</tspan></text></g><path marker-end="url(#l)" stroke="#000" stroke-linecap="round" stroke-linejoin="round" d="M693 612V261.9M450 639h179.1"/><path d="M1064.25 99H1098v351h-33.75m-202.5 0H828V99h33.75" stroke="#000" stroke-linecap="round" stroke-linejoin="round" stroke-dasharray="4,4"/><text transform="translate(833 99)" fill="#000"><tspan font-family="Helvetica" font-size="16" font-weight="500" x="73.531" y="15" textLength="112.938">Immutable Data</tspan></text><g filter="url(#k)"><path fill="#fff" d="M882 180h72v72h-72z"/><path stroke="#000" stroke-linecap="round" stroke-linejoin="round" d="M882 180h72v72h-72z"/><text transform="translate(887 197)" fill="#000"><tspan font-family="Helvetica" font-size="16" font-weight="500" x="11.438" y="15" textLength="39.125">Block</tspan><tspan font-family="Helvetica" font-size="16" font-weight="500" x="26.551" y="34" textLength="8.898">0</tspan></text></g><g filter="url(#k)"><path fill="#fff" d="M954 180h72v72h-72z"/><path stroke="#000" stroke-linecap="round" stroke-linejoin="round" d="M954 180h72v72h-72z"/><text transform="translate(959 197)" fill="#000"><tspan font-family="Helvetica" font-size="16" font-weight="500" x="11.438" y="15" textLength="39.125">Block</tspan><tspan font-family="Helvetica" font-size="16" font-weight="500" x="26.551" y="34" textLength="8.898">1</tspan></text></g><g filter="url(#k)"><path fill="#fff" d="M1026 180h72v72h-72z"/><path stroke="#000" stroke-linecap="round" stroke-linejoin="round" d="M1026 180h72v72h-72z"/><text transform="translate(1031 197)" fill="#000"><tspan font-family="Helvetica" font-size="16" font-weight="500" x="11.438" y="15" textLength="39.125">Block</tspan><tspan font-family="Helvetica" font-size="16" font-weight="500" x="26.551" y="34" textLength="8.898">2</tspan></text></g><g filter="url(#k)"><path fill="#fff" d="M1098 180h72v72h-72z"/><path stroke="#000" stroke-linecap="round" stroke-linejoin="round" d="M1098 180h72v72h-72z"/><text transform="translate(1103 197)" fill="#000"><tspan font-family="Helvetica" font-size="16" font-weight="500" x="11.438" y="15" textLength="39.125">Block</tspan><tspan font-family="Helvetica" font-size="16" font-weight="500" x="26.551" y="34" textLength="8.898">3</tspan></text></g><g filter="url(#k)"><path fill="#fff" d="M1170 180h72v72h-72z"/><path stroke="#000" stroke-linecap="round" stroke-linejoin="round" d="M1170 180h72v72h-72z"/><text transform="translate(1175 197)" fill="#000"><tspan font-family="Helvetica" font-size="16" font-weight="500" x="11.438" y="15" textLength="39.125">Block</tspan><tspan font-family="Helvetica" font-size="16" font-weight="500" x="26.551" y="34" textLength="8.898">4</tspan></text></g><g filter="url(#k)"><path fill="#fff" d="M1242 180h72v72h-72z"/><path stroke="#000" stroke-linecap="round" stroke-linejoin="round" d="M1242 180h72v72h-72z"/><text transform="translate(1247 197)" fill="#000"><tspan font-family="Helvetica" font-size="16" font-weight="500" x="11.438" y="15" textLength="39.125">Block</tspan><tspan font-family="Helvetica" font-size="16" font-weight="500" x="26.551" y="34" textLength="8.898">5</tspan></text></g><g id="h"><path d="M1458 252v-72h72c-9 21.6 27 50.4 9 72z" fill="#fff"/><path d="M1458 252v-72h72c-9 21.6 27 50.4 9 72z" stroke="#000" stroke-linecap="round" stroke-linejoin="round"/><text transform="translate(1472 192.5)" fill="#000"><tspan font-family="Helvetica" font-size="16" font-weight="500" x="22.113" y="15" textLength="17.773">Tx</tspan><tspan font-family="Helvetica" font-size="16" font-weight="500" x="14.988" y="34" textLength="32.023">Pool</tspan></text></g><text transform="translate(1103 127.44)" fill="#000"><tspan font-family="Helvetica Neue" font-size="16" font-weight="500" x=".176" y="15" textLength="42.672">Comfi</tspan><tspan font-family="Helvetica Neue" font-size="16" font-weight="500" x="42.848" y="15" textLength="18.976">rm</tspan><tspan font-family="Helvetica Neue" font-size="24" font-weight="500" x="20.992" y="41.448" textLength="20.016">⅔</tspan></text><text transform="translate(1031 127.44)" fill="#000"><tspan font-family="Helvetica Neue" font-size="16" font-weight="500" x=".176" y="15" textLength="42.672">Comfi</tspan><tspan font-family="Helvetica Neue" font-size="16" font-weight="500" x="42.848" y="15" textLength="18.976">rm</tspan><tspan font-family="Helvetica Neue" font-size="22" font-weight="500" x="1.004" y="41.448" textLength="12.232">1</tspan><tspan font-family="Helvetica Neue" font-size="24" font-weight="500" x="13.236" y="41.448" textLength="47.76"> + ⅔</tspan></text><path fill="#fff" d="M461.035 613h159v52h-159z"/><text transform="translate(466.035 618)" fill="#000"><tspan font-family="Helvetica" font-size="12" font-weight="500" x="0" y="11" textLength="112.066">2. Send Block3 Confi</tspan><tspan font-family="Helvetica" font-size="12" font-weight="500" x="112.066" y="11" textLength="13.992">rm</tspan><tspan font-family="Helvetica" font-size="12" font-weight="500" x="0" y="25" textLength="44.701">6. Send </tspan><tspan font-family="Helvetica" font-size="12" font-weight="500" x="44.49" y="25" textLength="90.029">Tx related UPDA</tspan><tspan font-family="Helvetica" font-size="12" font-weight="500" x="133.635" y="25" textLength="15.334">TE</tspan><tspan font-family="Helvetica" font-size="12" font-weight="500" x="0" y="39" textLength="80.719">9. Send Block7</tspan></text><g filter="url(#k)"><path fill="#fff" d="M504 180h72v72h-72z"/><path stroke="#000" stroke-linecap="round" stroke-linejoin="round" d="M504 180h72v72h-72z"/><text transform="translate(509 197)" fill="#000"><tspan font-family="Helvetica" font-size="16" font-weight="500" x="11.438" y="15" textLength="39.125">Block</tspan><tspan font-family="Helvetica" font-size="16" font-weight="500" x="26.551" y="34" textLength="8.898">5</tspan></text></g><g id="i"><path d="M936 419.4V318.6c0-6.955 24.192-12.6 54-12.6s54 5.645 54 12.6v100.8c0 6.955-24.192 12.6-54 12.6s-54-5.645-54-12.6" fill="#fff"/><path d="M936 419.4V318.6c0-6.955 24.192-12.6 54-12.6s54 5.645 54 12.6v100.8c0 6.955-24.192 12.6-54 12.6s-54-5.645-54-12.6m0-100.8c0 6.955 24.192 12.6 54 12.6s54-5.645 54-12.6" stroke="#000" stroke-linecap="round" stroke-linejoin="round"/><text transform="translate(941 359.3)" fill="#000"><tspan font-family="Helvetica" font-size="13" font-weight="500" x="18.655" y="13" textLength="60.69">Immutable</tspan><tspan font-family="Helvetica" font-size="13" font-weight="500" x="39.97" y="29" textLength="18.059">DB</tspan></text></g><path d="M1134 252v117h-80.1" marker-end="url(#l)" stroke="#000" stroke-linecap="round" stroke-linejoin="round"/><path fill="#fff" d="M1089 310.867h90v24h-90z"/><text transform="translate(1094 315.867)" fill="#000"><tspan font-family="Helvetica" font-size="12" font-weight="500" x=".314" y="11" textLength="79.371">3. Exec Block3</tspan></text><path fill="#fff" d="M626 433.828h134v24H626z"/><text transform="translate(631 438.828)" fill="#000"><tspan font-family="Helvetica" font-size="12" font-weight="500" x=".415" y="11" textLength="68.027">7. Put UPDA</tspan><tspan font-family="Helvetica" font-size="12" font-weight="500" x="67.558" y="11" textLength="56.027">TE to Pool</tspan></text><path marker-end="url(#l)" stroke="#000" stroke-linecap="round" stroke-linejoin="round" d="M1422 612l78.827-350.341"/><path fill="#fff" d="M1393.052 424.216h137v24h-137z"/><text transform="translate(1398.052 429.216)" fill="#000"><tspan font-family="Helvetica" font-size="12" font-weight="500" x=".248" y="11" textLength="71.361">7. Put UPDA</tspan><tspan font-family="Helvetica" font-size="12" font-weight="500" x="70.725" y="11" textLength="56.027">TE to Pool</tspan></text><path marker-end="url(#l)" stroke="#000" stroke-linecap="round" stroke-linejoin="round" d="M693 252L402.3 604.363"/><path fill="#fff" d="M469.004 421.632h145v28h-145z"/><text transform="translate(474.004 427.132)" fill="#000"><tspan font-family="Helvetica" font-size="12" font-weight="500" x=".179" y="13" textLength="6.674">8</tspan><tspan font-family="PingFang SC" font-size="12" font-weight="500" x="6.853" y="13" textLength="127.968">. Generate New Block7</tspan></text><g filter="url(#k)"><path fill="#fff" d="M1314 180h72v72h-72z"/><path stroke="#000" stroke-linecap="round" stroke-linejoin="round" d="M1314 180h72v72h-72z"/><text transform="translate(1319 197)" fill="#000"><tspan font-family="Helvetica" font-size="16" font-weight="500" x="11.438" y="15" textLength="39.125">Block</tspan><tspan font-family="Helvetica" font-size="16" font-weight="500" x="26.551" y="34" textLength="8.898">6</tspan></text></g><g filter="url(#k)"><path fill="#fff" d="M1386 180h72v72h-72z"/><path d="M1386 180h72v72h-72z" stroke="#000" stroke-linecap="round" stroke-linejoin="round" stroke-dasharray="4,4"/><text transform="translate(1391 197)" fill="#000"><tspan font-family="Helvetica" font-size="16" font-weight="500" x="11.438" y="15" textLength="39.125">Block</tspan><tspan font-family="Helvetica" font-size="16" font-weight="500" x="26.551" y="34" textLength="8.898">7</tspan></text></g><path marker-end="url(#l)" stroke="#000" stroke-linecap="round" stroke-linejoin="round" d="M1422 612V261.9"/><path fill="#fff" d="M1378 357.929h88v24h-88z"/><text transform="translate(1383 362.929)" fill="#000"><tspan font-family="Helvetica" font-size="12" font-weight="500" x=".311" y="11" textLength="77.379">10. Put Block7</tspan></text><g id="j"><path fill="#fff" d="M1368 612h108v54h-108z"/><path d="M1368 612h108v54h-108zm10.8 0v54m86.4 0v-54" stroke="#000" stroke-linecap="round" stroke-linejoin="round"/><text transform="translate(1383.8 629.5)" fill="#000"><tspan font-family="Helvetica" font-size="16" font-weight="500" x="13.446" y="15" textLength="21.344">BP</tspan><tspan font-family="Helvetica" font-size="16" font-weight="500" x="34.509" y="15" textLength="28.445"> VM</tspan></text></g><path marker-end="url(#l)" stroke="#000" stroke-linecap="round" stroke-linejoin="round" d="M1287 639h71.1"/><text transform="translate(581 136.776)" fill="#000"><tspan font-family="Helvetica Neue" font-size="16" font-weight="500" x=".364" y="15" textLength="15.696">Pr</tspan><tspan font-family="Helvetica Neue" font-size="16" font-weight="500" x="15.772" y="15" textLength="40.864">eview</tspan></text></g></svg>